<?xml version="1.0" encoding="utf-8"?>
<!-- Generator: Adobe Illustrator 15.0.0, SVG Export Plug-In . SVG Version: 6.00 Build 0)  -->
<!DOCTYPE svg PUBLIC "-//W3C//DTD SVG 1.1//EN" "http://www.w3.org/Graphics/SVG/1.1/DTD/svg11.dtd">
<svg version="1.1" id="addressbook_navbar" xmlns="http://www.w3.org/2000/svg" xmlns:xlink="http://www.w3.org/1999/xlink" x="0px"
	 y="0px" width="28.348px" height="28.348px" viewBox="0 0 28.348 28.348" enable-background="new 0 0 28.348 28.348"
	 xml:space="preserve">
<path fill="#fff" d="M1.153,13.399c0.495-0.014,0.899-0.146,1.213-0.402c0.313-0.254,0.52-0.604,0.624-1.048
	c0.103-0.444,0.158-1.206,0.164-2.282C3.16,8.59,3.179,7.881,3.211,7.54C3.27,6.999,3.377,6.563,3.535,6.234
	c0.159-0.328,0.354-0.591,0.585-0.788c0.232-0.195,0.528-0.345,0.888-0.45c0.246-0.063,0.646-0.096,1.199-0.096H6.75v1.519h-0.3
	c-0.67,0-1.116,0.12-1.334,0.362C4.897,7.023,4.788,7.561,4.788,8.4c0,1.689-0.037,2.756-0.107,3.2
	c-0.116,0.688-0.314,1.221-0.594,1.594c-0.281,0.373-0.72,0.706-1.32,0.998c0.709,0.296,1.223,0.747,1.542,1.358
	c0.318,0.608,0.479,1.604,0.479,2.992c0,1.254,0.012,2.003,0.038,2.24c0.052,0.438,0.182,0.743,0.392,0.919
	c0.209,0.174,0.62,0.26,1.232,0.26h0.3v1.519H6.208c-0.632,0-1.089-0.052-1.372-0.154c-0.414-0.148-0.754-0.386-1.025-0.718
	c-0.271-0.333-0.447-0.755-0.528-1.264c-0.08-0.51-0.124-1.345-0.13-2.503c-0.006-1.162-0.061-1.965-0.164-2.408
	c-0.104-0.444-0.311-0.796-0.624-1.054c-0.313-0.258-0.718-0.394-1.213-0.405V13.399z"/>
<path fill="#fff" d="M6.75,13.399c0.496-0.014,0.9-0.146,1.212-0.402c0.313-0.254,0.521-0.604,0.624-1.048
	c0.104-0.444,0.158-1.206,0.165-2.282C8.758,8.59,8.777,7.881,8.809,7.54c0.058-0.542,0.166-0.977,0.323-1.306
	C9.29,5.906,9.486,5.643,9.718,5.447c0.232-0.195,0.528-0.345,0.889-0.45c0.245-0.063,0.645-0.096,1.199-0.096h0.541v1.519h-0.3
	c-0.67,0-1.114,0.12-1.333,0.362c-0.221,0.242-0.329,0.78-0.329,1.619c0,1.689-0.036,2.756-0.107,3.2
	c-0.116,0.688-0.314,1.221-0.594,1.594c-0.281,0.373-0.72,0.706-1.32,0.998c0.709,0.296,1.224,0.747,1.542,1.358
	c0.319,0.608,0.479,1.604,0.479,2.992c0,1.254,0.012,2.003,0.038,2.24c0.052,0.438,0.182,0.743,0.392,0.919
	c0.209,0.174,0.62,0.26,1.231,0.26h0.3v1.519h-0.541c-0.632,0-1.089-0.052-1.373-0.154c-0.413-0.148-0.754-0.386-1.025-0.718
	c-0.27-0.333-0.445-0.755-0.525-1.264c-0.082-0.51-0.125-1.345-0.131-2.503c-0.007-1.162-0.061-1.965-0.165-2.408
	c-0.103-0.444-0.31-0.796-0.624-1.054c-0.312-0.258-0.716-0.394-1.212-0.405V13.399z"/>
<path fill="#fff" d="M21.661,13.399v1.575c-0.497,0.012-0.901,0.147-1.213,0.405c-0.315,0.258-0.521,0.609-0.624,1.052
	c-0.104,0.439-0.159,1.197-0.166,2.273c-0.005,1.075-0.022,1.785-0.058,2.128c-0.055,0.547-0.165,0.984-0.322,1.312
	c-0.157,0.326-0.354,0.585-0.586,0.782c-0.231,0.196-0.527,0.345-0.889,0.448c-0.244,0.069-0.644,0.105-1.198,0.105h-0.541v-1.519
	h0.299c0.67,0,1.114-0.12,1.335-0.359c0.219-0.242,0.328-0.786,0.328-1.631c0-1.611,0.028-2.634,0.088-3.064
	c0.103-0.715,0.308-1.285,0.617-1.713c0.31-0.43,0.747-0.767,1.314-1.002c-0.741-0.355-1.263-0.824-1.568-1.406
	c-0.3-0.583-0.451-1.568-0.451-2.955c0-1.256-0.017-2.007-0.049-2.252c-0.045-0.432-0.172-0.733-0.383-0.904
	c-0.208-0.171-0.619-0.256-1.231-0.256h-0.299V4.901h0.541c0.631,0,1.089,0.052,1.372,0.155c0.412,0.143,0.754,0.38,1.023,0.715
	c0.272,0.335,0.447,0.758,0.53,1.267c0.078,0.509,0.122,1.344,0.127,2.503c0.007,1.161,0.062,1.961,0.166,2.404
	c0.103,0.441,0.309,0.79,0.624,1.047C20.76,13.25,21.164,13.385,21.661,13.399z"/>
<path fill="#fff" d="M27.258,13.399v1.575c-0.498,0.012-0.901,0.147-1.215,0.405c-0.31,0.258-0.52,0.609-0.623,1.052
	c-0.101,0.439-0.156,1.197-0.163,2.273c-0.008,1.075-0.027,1.785-0.058,2.128c-0.059,0.547-0.168,0.984-0.325,1.312
	c-0.156,0.326-0.353,0.585-0.583,0.782c-0.232,0.196-0.528,0.345-0.892,0.448c-0.244,0.069-0.643,0.105-1.197,0.105h-0.541v-1.519
	h0.299c0.671,0,1.116-0.12,1.332-0.359c0.221-0.242,0.331-0.786,0.331-1.631c0-1.611,0.029-2.634,0.087-3.064
	c0.103-0.715,0.309-1.285,0.62-1.713c0.308-0.43,0.746-0.767,1.315-1.002c-0.743-0.355-1.266-0.824-1.567-1.406
	c-0.305-0.583-0.455-1.568-0.455-2.955c0-1.256-0.016-2.007-0.049-2.252c-0.044-0.432-0.174-0.733-0.38-0.904
	c-0.211-0.171-0.622-0.256-1.234-0.256h-0.299V4.901h0.541c0.63,0,1.088,0.052,1.372,0.155c0.414,0.143,0.756,0.38,1.024,0.715
	c0.27,0.335,0.447,0.758,0.528,1.267s0.122,1.344,0.13,2.503c0.007,1.161,0.062,1.961,0.163,2.404
	c0.104,0.441,0.313,0.79,0.623,1.047C26.357,13.25,26.76,13.385,27.258,13.399z"/>
<circle fill="#fff" cx="14.208" cy="14.181" r="1.088"/>
<circle fill="#fff" cx="14.208" cy="9.373" r="1.088"/>
<circle fill="#fff" cx="14.208" cy="18.99" r="1.088"/>
</svg>