<?xml version="1.0" encoding="UTF-8" standalone="no"?>

<svg
   version="1.1"
   width="52.235px"
   height="52.235px"
   viewBox="0 0 52.235 52.235"
   xmlns="http://www.w3.org/2000/svg"
   xmlns:svg="http://www.w3.org/2000/svg">
<path
   d="m 44.617444,7.6724584 c -10.186003,-10.212 -26.720003,-10.237 -36.9340023,-0.053 -10.2140004,10.1849996 -10.2380004,26.7229996 -0.056,36.9369996 10.1859993,10.215 26.7279993,10.236 36.9370023,0.051 10.214,-10.184 10.24,-26.718 0.053,-36.9349996 z"
   style="fill:CurrentColor" />
<g
   id="g1"
   transform="matrix(1.1271593,0,0,1.1271593,-4.5099264,-3.2721167)"><path
     id="path2-1"
     style="fill:#ffffff"
     d="m 26.277344,9.7324219 -7.464844,7.4687501 8.722656,8.222656 0.400391,0.376953 -0.400391,0.376953 -1.847656,1.720704 2.837891,4.046874 -9.06836,1.75586 -0.646484,0.601562 7.466797,7.429688 16.03125,-15.964844 z" /><path
     d="m 27.178811,25.800514 -8.717,8.15 v -16.364 z"
     style="fill:#ffffff" /></g></svg>
