<?xml version="1.0" encoding="UTF-8" standalone="no"?>
<svg
   xmlns:dc="http://purl.org/dc/elements/1.1/"
   xmlns:cc="http://creativecommons.org/ns#"
   xmlns:rdf="http://www.w3.org/1999/02/22-rdf-syntax-ns#"
   xmlns:svg="http://www.w3.org/2000/svg"
   xmlns="http://www.w3.org/2000/svg"
   id="svg4530"
   version="1.1"
   viewBox="0 0 472.8 472.8"
   height="28.347px"
   width="28.347px">
  <g
     transform="translate(-320.0,236.5)"
     id="layer1">
    <polygon
       id="polygon14"
       points="17.914,44.893 17.358,44.386 17.258,20.718 17.772,20.172 30.958,32.599 "
       style="fill:#ffffff"
       transform="matrix(10.216927,0,0,10.216927,237.11117,-332.2152)" />
    <polygon
       style="fill:#504999;fill-opacity:1"
       id="polygon16"
       points="17.772,20.172 30.379,32.053 30.958,32.599 30.379,33.145 17.914,44.893 28.654,55.638 51.742,32.55 28.561,9.362 17.763,20.162 "
       transform="matrix(10.216927,0,0,10.216927,237.11117,-332.2152)" />
    <polygon
       id="polygon18"
       points="17.358,44.386 17.258,20.718 29.864,32.599 "
       style="fill:#c8c8c8"
       transform="matrix(10.216927,0,0,10.216927,237.11117,-332.2152)" />
    <polygon
       style="fill:#38257a;fill-opacity:1"
       id="polygon20"
       points="27.743,35.628 18.807,44.052 31.847,41.483 "
       transform="matrix(10.216927,0,0,10.216927,237.11117,-332.2152)" />
  </g>
</svg>
