<?xml version="1.0" encoding="utf-8"?>
<!-- Generator: Adobe Illustrator 15.0.0, SVG Export Plug-In . SVG Version: 6.00 Build 0)  -->
<!DOCTYPE svg PUBLIC "-//W3C//DTD SVG 1.1//EN" "http://www.w3.org/Graphics/SVG/1.1/DTD/svg11.dtd">
<svg version="1.1" id="Ebene_1" xmlns="http://www.w3.org/2000/svg" xmlns:xlink="http://www.w3.org/1999/xlink" x="0px" y="0px"
	 width="150px" height="149.989px" viewBox="182.957 297.3 150 149.989" enable-background="new 182.957 297.3 150 149.989"
	 xml:space="preserve">
<path fill="#FFFFFF" d="M256.215,438.989l-23.552,6.26l5.888-23.897l0.327-0.32l-0.009-0.02l4.368-4.372l0.013,0.014l58.835-58.698
	l10.355-10.338c0.899-0.886,2.068-1.343,3.227-1.343c1.189,0,2.367,0.458,3.252,1.343l11.368,11.354
	c1.809,1.792,1.809,4.694,0,6.469l-10.576,10.138l-0.121-0.122L256.215,438.989z M203.105,315.364L203,414.203l11.336,11.75
	l4.809,0.103l-0.418-42.653h49.069l-6.164,6.183h-35.139v37.097h4.355l-1.529,6.198h-15.192c-1.637,0-3.234-0.641-4.377-1.816
	l-12.366-12.369c-1.188-1.151-1.828-2.736-1.828-4.387v-98.944c0-3.411,2.785-6.192,6.192-6.192h111.328
	c3.406,0,7.658,2.572,7.658,5.983v25.357c-1.172-0.417-3.856-0.44-5.067-0.44c-0.85,0-1.729,0.113-2.591,0.331v-25.04l-13.399-0.204
	v35.191c0.059-0.009,0.829,7.312-7.082,8.283h-2.647v0.005l-77.28,0.1l-0.164-43.375H203.105z M243.25,408.021l-4.381,4.208v-16.448
	h12.37v4.087h-0.004v0.146L243.25,408.021z M256.708,394.513h0.01l-1.289,1.292h-0.013
	C255.842,395.379,256.278,394.941,256.708,394.513z M238.868,412.229v0.027h-0.027L238.868,412.229z M313.076,390.765l7.447-7.657
	v43.68c0,3.416-4.041,6.093-7.447,6.093h-41.987l6.02-6.17l0.165-0.028h11.058v-11.094l6.201-6.188v17.282h18.544V390.765z
	 M294.532,409.399l18.544-18.645v0.01L294.532,409.399z M220.292,351.64h72.043l-0.206-36.276h-71.837V351.64z"/>
</svg>
