<svg xmlns="http://www.w3.org/2000/svg" viewBox="0 0 24 24">
    <path d="M 18.789 8.604 L 21.875 11.691 L 10.699 22.896 L 6.546 24 L 7.583 19.784 L 7.639 19.728 L 7.637 19.726 L 8.408 18.955 L 8.41 18.957 L 18.789 8.604 Z M 9.119 19.666 L 10.811 21.36 L 20.457 11.693 L 18.787 10.021 L 9.119 19.666 Z M 7.925 22.596 L 9.879 22.076 L 8.412 20.613 L 7.925 22.596 Z M 21.759 6.782 L 23.762 8.783 C 24.079 9.099 24.079 9.609 23.762 9.925 L 21.895 11.712 L 18.789 8.604 L 20.615 6.782 C 20.774 6.624 20.979 6.545 21.186 6.545 C 21.392 6.545 21.601 6.624 21.759 6.782 Z M 20.205 8.606 L 21.911 10.31 L 22.912 9.349 L 21.186 7.625 L 20.205 8.606 Z M 1.091 1.091 L 1.091 18.545 L 3.273 20.727 L 4.364 20.727 L 4.364 13.091 L 12.741 13.091 L 8.412 17.41 L 7.634 18.181 L 7.637 18.179 L 7.637 15.273 L 9.819 15.273 L 9.819 16.005 L 11.647 14.182 L 5.455 14.182 L 5.455 20.727 L 6.223 20.727 L 5.955 21.818 L 3.273 21.818 C 2.984 21.818 2.707 21.703 2.502 21.499 L 0.32 19.317 C 0.115 19.112 0 18.835 0 18.545 L 0 1.091 C 0 0.488 0.489 0 1.091 0 L 20.728 0 C 21.33 0 21.819 0.488 21.819 1.091 L 21.819 5.565 C 21.613 5.492 21.399 5.45 21.186 5.45 C 21.033 5.45 20.879 5.47 20.728 5.507 L 20.728 1.091 L 18.546 1.091 L 18.546 7.299 L 18.016 7.827 L 17.114 8.727 L 3.273 8.727 L 3.273 1.091 L 1.091 1.091 Z M 17.115 8.727 L 12.742 13.091 L 12.741 13.091 L 17.114 8.727 L 17.115 8.727 Z M 20.728 5.516 C 20.403 5.599 20.091 5.759 19.842 6.008 C 20.092 5.758 20.402 5.589 20.728 5.507 L 20.728 5.516 Z M 20.728 14.393 L 21.819 13.299 L 21.819 20.727 C 21.819 21.329 21.33 21.818 20.728 21.818 L 13.322 21.818 L 15.383 19.751 L 14.41 20.727 L 16.364 20.727 L 16.364 18.768 L 17.455 17.674 L 17.455 20.727 L 20.728 20.727 L 20.728 14.393 Z M 17.455 17.674 L 20.728 14.392 L 20.728 14.393 L 17.455 17.674 Z M 4.364 7.636 L 17.455 7.636 L 17.455 1.091 L 4.364 1.091 L 4.364 7.636 Z" fill="#ffffff" style=""/>
</svg>