<?xml version="1.0" encoding="utf-8"?>
<svg viewBox="0 0 32 32" xmlns="http://www.w3.org/2000/svg">
    <path d="M 14.372 30.118 L 9.18 31.498 L 10.478 26.23 L 10.55 26.159 L 10.548 26.155 L 11.511 25.191 L 11.514 25.194 L 24.484 12.254 L 26.767 9.975 C 26.965 9.78 27.223 9.679 27.478 9.679 C 27.74 9.679 28 9.78 28.195 9.975 L 30.701 12.478 C 31.1 12.873 31.1 13.513 30.701 13.904 L 28.37 16.139 L 28.343 16.112 Z M 12.697 26.407 L 14.238 27.946 L 26.295 15.865 L 24.78 14.346 Z M 10.908 29.743 L 13.344 29.092 L 11.514 27.264 Z M 26.254 12.254 L 28.387 14.384 L 29.637 13.184 L 27.478 11.029 Z M 2.664 2.865 L 2.641 24.654 L 5.14 27.244 L 6.2 27.267 L 6.108 17.864 L 16.925 17.864 L 15.566 19.227 L 7.82 19.227 L 7.82 27.405 L 8.78 27.405 L 8.443 28.771 L 5.094 28.771 C 4.733 28.771 4.381 28.63 4.129 28.371 L 1.403 25.644 C 1.141 25.39 1 25.041 1 24.677 L 1 2.865 C 1 2.113 1.614 1.5 2.365 1.5 L 26.907 1.5 C 27.658 1.5 28.595 2.067 28.595 2.819 L 28.595 8.409 C 28.337 8.317 27.745 8.312 27.478 8.312 C 27.291 8.312 27.097 8.337 26.907 8.385 L 26.907 2.865 L 23.953 2.82 L 23.953 10.578 C 23.966 10.576 24.136 12.19 22.392 12.404 L 21.808 12.404 L 21.808 12.405 L 4.772 12.427 L 4.736 2.865 Z M 11.514 23.291 L 10.548 24.219 L 10.548 20.593 L 13.275 20.593 L 13.275 21.494 L 13.274 21.494 L 13.274 21.526 Z M 14.481 20.313 L 14.483 20.313 L 14.199 20.598 L 14.196 20.598 C 14.29 20.504 14.386 20.408 14.481 20.313 Z M 10.548 24.219 L 10.548 24.225 L 10.542 24.225 Z M 26.907 19.487 L 28.549 17.799 L 28.549 27.428 C 28.549 28.181 27.658 28.771 26.907 28.771 L 17.651 28.771 L 18.978 27.411 L 19.014 27.405 L 21.452 27.405 L 21.452 24.959 L 22.819 23.595 L 22.819 27.405 L 26.907 27.405 Z M 22.819 23.595 L 26.907 19.485 L 26.907 19.487 Z M 6.453 10.862 L 22.335 10.862 L 22.289 2.865 L 6.453 2.865 Z" fill="#fafafa"/>
</svg>