<?xml version="1.0" encoding="utf-8"?>
<svg xmlns="http://www.w3.org/2000/svg" viewBox="0 0 24 24">
    <path d="M 18.221 9.386 L 21.051 12.216 L 10.806 22.486 L 6.999 23.498 L 7.95 19.635 L 8.003 19.583 L 8.001 19.58 L 8.708 18.873 L 8.71 18.875 L 18.221 9.386 Z M 9.358 19.528 L 10.91 21.079 L 19.752 12.219 L 18.219 10.684 L 9.358 19.528 Z M 8.265 22.211 L 10.052 21.734 L 8.71 20.393 L 8.265 22.211 Z M 20.943 7.715 L 22.781 9.55 C 23.073 9.841 23.073 10.309 22.781 10.596 L 21.071 12.235 L 18.221 9.386 L 19.895 7.715 C 20.04 7.572 20.23 7.498 20.417 7.498 C 20.609 7.498 20.8 7.572 20.943 7.715 Z M 19.519 9.386 L 21.083 10.948 L 22 10.068 L 20.417 8.488 L 19.519 9.386 Z M 2.001 2.501 L 2.001 18.496 L 4.002 20.497 L 4.999 20.497 L 4.999 13.5 L 12.678 13.5 L 8.71 17.46 L 7.998 18.164 L 8.001 18.164 L 8.001 15.501 L 10.001 15.501 L 10.001 16.17 L 11.677 14.499 L 6.001 14.499 L 6.001 20.497 L 6.705 20.497 L 6.459 21.499 L 4.002 21.499 C 3.737 21.499 3.48 21.395 3.294 21.204 L 1.295 19.205 C 1.104 19.019 1 18.763 1 18.496 L 1 2.501 C 1 1.949 1.45 1.5 2.001 1.5 L 19.998 1.5 C 20.549 1.5 21 1.949 21 2.501 L 21 6.6 C 20.81 6.533 20.613 6.496 20.417 6.496 C 20.28 6.496 20.137 6.513 19.998 6.549 L 19.998 2.501 L 17.997 2.501 L 17.997 8.191 L 17.512 8.675 L 16.688 9.496 L 4.002 9.496 L 4.002 2.501 L 2.001 2.501 Z M 16.689 9.496 L 12.679 13.5 L 12.678 13.5 L 16.688 9.496 L 16.689 9.496 Z M 19.998 6.555 C 19.702 6.633 19.416 6.779 19.185 7.008 C 19.418 6.777 19.701 6.622 19.998 6.549 L 19.998 6.555 Z M 19.998 14.69 L 21 13.69 L 21 20.497 C 21 21.049 20.549 21.499 19.998 21.499 L 13.211 21.499 L 15.1 19.604 L 14.21 20.497 L 15.998 20.497 L 15.998 18.703 L 17 17.702 L 17 20.497 L 19.998 20.497 L 19.998 14.69 Z M 17 17.702 L 19.998 14.689 L 19.998 14.69 L 17 17.702 Z M 4.999 8.5 L 17 8.5 L 17 2.501 L 4.999 2.501 L 4.999 8.5 Z" fill="#ffffff" style=""/>
</svg>